<?xml version="1.0" standalone="no"?>
<!DOCTYPE svg PUBLIC "-//W3C//DTD SVG 20010904//EN"
 "http://www.w3.org/TR/2001/REC-SVG-20010904/DTD/svg10.dtd">
<svg version="1.0" xmlns="http://www.w3.org/2000/svg"
 width="900.000000pt" height="294.000000pt" viewBox="0 0 900.000000 294.000000"
 preserveAspectRatio="xMidYMid meet">
<metadata>
Created by potrace 1.10, written by Peter Selinger 2001-2011
</metadata>
<g transform="translate(0.000000,294.000000) scale(0.100000,-0.100000)"
fill="#000000" stroke="none">
<path d="M865 2670 c-3 -5 -14 -10 -24 -10 -21 0 -88 -60 -123 -110 -14 -19
-26 -51 -27 -70 -2 -47 -12 -54 -74 -55 l-52 0 0 92 c0 83 -2 94 -24 117 -20
22 -33 26 -77 26 -35 0 -59 -6 -74 -18 l-22 -17 0 -872 c0 -479 2 -876 6 -881
10 -17 70 -25 121 -18 62 10 74 35 67 144 l-5 82 108 0 108 0 -5 -74 c-6 -89
9 -132 46 -142 26 -6 35 -27 16 -39 -5 -3 -10 -19 -10 -34 0 -32 -16 -51 -45
-51 -21 0 -95 62 -95 79 0 17 48 13 75 -5 15 -10 32 -13 42 -9 15 6 16 8 3 13
-8 3 -26 13 -39 23 -32 25 -62 24 -140 -6 -139 -53 -149 -74 -35 -75 12 0 41
-18 64 -40 49 -45 82 -51 146 -24 56 23 94 62 94 97 0 35 16 67 33 67 7 0 24
14 36 31 20 27 23 40 20 107 l-4 77 108 2 c120 2 116 4 120 -68 4 -65 36 -103
119 -144 39 -19 77 -35 85 -35 7 0 47 15 87 34 61 29 77 41 95 76 12 23 24 62
28 86 3 24 8 44 12 44 3 1 162 2 354 3 l347 2 0 -25 c0 -14 7 -38 15 -54 8
-15 15 -34 15 -40 0 -25 76 -85 133 -104 55 -20 59 -20 105 -3 139 51 180 129
169 317 -6 100 -13 122 -61 172 -47 51 -76 62 -158 62 -79 -1 -128 -21 -166
-71 -27 -34 -56 -115 -48 -135 14 -38 -1 -39 -361 -34 l-348 5 -7 58 c-8 65
-44 121 -102 156 -51 32 -172 30 -225 -3 -60 -38 -83 -77 -89 -152 l-5 -65
-111 3 -111 3 3 70 c4 68 2 72 -29 111 -32 38 -36 40 -89 39 -51 -1 -56 -3
-78 -35 -21 -32 -23 -42 -17 -111 l7 -76 -99 -5 c-54 -3 -101 -4 -105 -1 -5 2
-8 132 -8 289 l0 284 359 0 c233 0 362 -4 366 -10 4 -6 24 -19 46 -30 41 -22
51 -48 24 -70 -21 -17 -19 -43 8 -84 44 -69 111 -72 154 -7 34 51 30 84 -17
135 -22 24 -40 48 -40 55 0 8 42 11 153 9 l152 -3 3 -54 c4 -60 34 -117 79
-148 84 -59 146 -67 216 -29 85 45 135 123 124 192 -3 18 -1 36 4 39 14 9 122
10 136 2 7 -4 10 -20 6 -40 -7 -46 35 -125 89 -168 40 -33 46 -34 128 -34 78
0 88 2 122 28 20 16 47 45 60 65 21 34 23 48 23 183 0 143 -1 146 -28 188 -37
56 -91 80 -180 81 -70 0 -120 -18 -157 -58 -30 -32 -59 -97 -58 -131 1 -17 -2
-34 -5 -38 -8 -7 -112 -7 -125 1 -5 3 -12 32 -16 64 -6 52 -11 63 -49 99 -58
56 -75 63 -159 63 -57 0 -82 -5 -113 -23 -48 -27 -94 -91 -95 -132 -1 -74 -1
-74 -118 -72 l-107 2 -1 78 c0 45 -5 82 -12 89 -7 7 -12 18 -12 24 0 42 -129
129 -154 104 -5 -5 -17 -10 -26 -10 -10 0 -37 -21 -62 -46 -42 -42 -46 -52
-53 -111 -4 -43 -3 -68 5 -78 6 -8 10 -21 8 -30 -3 -15 -36 -17 -338 -17
l-335 -1 -3 272 c-3 305 -6 294 70 270 41 -14 43 -16 54 -72 23 -116 109 -196
220 -205 84 -6 135 10 172 57 61 77 65 102 22 146 -16 17 -31 42 -32 55 -3 22
0 24 22 21 14 -2 167 -5 340 -7 173 -2 321 -3 328 -4 8 0 12 -18 12 -57 0 -58
22 -101 75 -145 34 -28 139 -41 210 -26 72 16 154 125 141 189 -7 38 10 49 75
49 62 0 74 -11 63 -55 -10 -39 38 -126 89 -163 39 -27 54 -32 104 -32 85 0
130 16 182 65 l46 44 -2 173 c-1 160 -3 174 -21 186 -11 7 -38 31 -61 53 -28
26 -51 39 -69 39 -102 0 -142 -4 -150 -15 -4 -6 -23 -21 -43 -34 -36 -25 -69
-92 -69 -144 0 -35 -17 -44 -82 -39 -54 4 -58 6 -58 29 0 14 -6 37 -14 51 -7
15 -19 39 -26 54 -17 35 -88 85 -138 96 -23 6 -59 6 -84 1 -24 -4 -46 -8 -50
-9 -3 0 -32 -26 -63 -57 -54 -56 -56 -59 -53 -108 l3 -50 -320 -5 c-176 -3
-330 -2 -343 3 l-23 7 20 29 c20 28 30 101 14 101 -5 0 -28 18 -52 40 -25 22
-54 40 -66 40 -13 0 -28 7 -35 15 -14 17 -95 21 -105 5z m25 -115 c14 -13 22
-14 43 -4 64 29 121 -58 62 -97 l-27 -17 26 -14 c43 -23 33 -61 -36 -137 -59
-65 -158 -60 -197 11 -12 24 -15 106 -3 117 4 4 7 30 7 57 0 43 4 53 30 74 35
28 71 32 95 10z m1738 -17 c31 -34 42 -72 42 -146 0 -101 -12 -133 -67 -172
l-46 -34 -46 25 c-33 17 -59 44 -94 94 -26 39 -50 75 -53 82 -6 13 98 158 119
166 7 3 37 6 68 6 45 1 59 -3 77 -21z m-549 -41 c25 -23 57 -50 70 -59 17 -12
25 -29 28 -62 l6 -46 -41 0 c-61 0 -72 -7 -65 -41 4 -22 -1 -34 -25 -59 -28
-27 -34 -29 -79 -24 -58 8 -98 41 -108 90 -4 22 -16 40 -33 51 -15 10 -30 22
-34 28 -10 13 -10 55 0 55 4 0 33 25 66 55 56 53 60 55 114 55 51 0 58 -3 101
-43z m-1031 -246 c7 -46 -6 -71 -37 -71 -30 0 -41 14 -41 54 0 30 20 47 50 44
18 -2 26 -10 28 -27z m-136 -63 c37 -25 31 -42 -14 -46 -29 -2 -40 2 -56 23
-43 54 5 70 70 23z m1712 -296 c38 -53 46 -128 21 -201 -19 -59 -54 -91 -100
-91 -44 0 -75 27 -113 99 -37 71 -38 78 -12 111 11 14 20 33 20 43 0 10 7 20
16 24 9 3 19 15 23 26 9 25 68 47 96 37 11 -4 33 -26 49 -48z m-581 -14 l49
-52 -6 -76 c-4 -52 -12 -83 -26 -102 -11 -15 -20 -32 -20 -37 0 -21 -53 -39
-80 -29 -76 31 -90 49 -105 136 -5 33 -3 47 14 71 12 16 21 38 21 49 0 26 62
92 86 92 10 0 40 -23 67 -52z m-617 11 c23 -25 26 -98 5 -122 -20 -25 -67 -21
-85 5 -23 33 -20 87 6 115 27 29 49 29 74 2z m52 -261 c21 -21 15 -76 -10 -89
-18 -10 -24 -8 -40 11 -21 25 -22 43 -8 71 12 21 40 25 58 7z m-6 -346 c17 -7
34 -27 46 -54 11 -24 31 -54 46 -67 28 -27 35 -66 11 -74 -8 -4 -26 -29 -40
-56 -29 -59 -85 -101 -132 -101 -24 0 -44 10 -73 36 -22 20 -40 42 -40 49 0 7
-11 29 -25 49 -26 38 -33 80 -15 91 6 4 25 31 41 61 17 30 43 61 58 69 27 16
77 14 123 -3z m1164 -19 c19 -21 37 -49 41 -63 3 -14 10 -30 15 -36 17 -22
-22 -86 -60 -98 -24 -8 -30 -31 -9 -39 15 -5 -9 -54 -35 -70 -18 -12 -95 2
-90 16 1 4 4 6 5 5 2 -2 10 2 18 8 8 7 29 15 47 19 56 12 35 23 -51 26 -73 4
-89 8 -125 33 -23 16 -42 34 -42 41 0 6 25 39 55 72 30 34 55 66 55 72 0 28
41 51 91 51 45 0 53 -4 85 -37z m-1745 -34 c3 -14 19 -44 34 -67 26 -39 27
-43 12 -64 -47 -66 -61 -72 -93 -37 -10 12 -29 25 -41 30 -26 9 -33 59 -10 59
21 0 47 33 58 74 11 41 29 43 40 5z m-223 -451 c14 -14 16 -38 3 -38 -5 0 -16
11 -25 25 -13 19 -13 25 -3 25 7 0 18 -5 25 -12z"/>
<path d="M822 2509 c-13 -5 -20 -13 -17 -19 7 -12 35 -13 53 -1 22 13 -8 30
-36 20z"/>
<path d="M867 2443 c-4 -3 -7 -17 -7 -30 0 -12 -6 -23 -12 -23 -14 0 -39 -46
-30 -55 13 -13 33 -3 42 21 6 15 19 39 30 54 11 16 20 31 20 34 0 8 -35 8 -43
-1z"/>
<path d="M844 2296 c-18 -14 -18 -15 8 -21 31 -8 48 0 48 21 0 18 -30 18 -56
0z"/>
<path d="M6080 2573 c-30 -2 -59 -8 -63 -12 -4 -5 3 -22 17 -39 23 -26 26 -39
26 -105 0 -42 5 -88 10 -103 10 -24 8 -31 -15 -53 -51 -52 -87 -97 -127 -164
-45 -75 -92 -127 -114 -127 -17 0 -17 -4 0 -38 21 -42 29 -107 16 -133 -18
-33 5 -41 49 -18 20 10 46 19 58 19 12 0 26 6 30 13 28 44 109 61 107 22 -6
-73 -12 -90 -38 -103 -32 -16 -33 -26 -4 -46 27 -19 98 -21 122 -3 25 18 17
50 -14 57 -23 5 -26 12 -31 70 -4 39 -12 67 -21 74 -9 6 -17 20 -19 31 -7 33
-58 31 -107 -5 -80 -57 -83 -28 -11 84 28 43 55 92 61 110 14 40 46 76 70 76
12 0 18 8 18 23 1 29 88 95 186 139 41 18 74 39 74 46 0 29 -130 1 -194 -43
-20 -14 -41 -25 -46 -25 -12 0 -13 169 -2 187 4 6 16 11 27 10 16 -2 20 4 20
28 0 33 -1 33 -85 28z"/>
<path d="M6946 2563 c-11 -3 -26 -12 -34 -19 -9 -10 -25 -13 -48 -8 -23 4 -42
1 -59 -10 -13 -9 -31 -16 -40 -16 -9 0 -45 -13 -80 -30 -35 -16 -73 -30 -85
-30 -11 0 -49 -20 -83 -44 -57 -40 -102 -68 -162 -100 -11 -6 -34 -24 -50 -39
-17 -15 -41 -30 -55 -34 -13 -3 -42 -23 -64 -45 -22 -21 -48 -41 -59 -44 -15
-5 -17 -12 -11 -37 9 -43 11 -44 34 -14 11 14 31 29 43 33 12 4 36 17 53 30
17 13 34 24 39 24 4 0 38 20 75 45 37 25 75 45 83 45 9 0 18 4 21 9 10 15 209
118 270 140 32 11 78 23 104 27 26 4 56 11 66 17 31 15 360 21 404 6 20 -7 64
-18 97 -25 112 -22 266 -88 355 -150 103 -73 200 -109 200 -75 0 14 -95 111
-108 111 -6 0 -23 11 -38 25 -15 14 -32 25 -39 25 -7 0 -31 14 -53 30 -23 17
-49 30 -59 30 -9 0 -35 8 -57 19 -93 42 -115 51 -128 51 -7 0 -22 7 -33 15
-13 10 -30 13 -52 9 -25 -5 -39 -2 -53 11 -13 12 -34 17 -62 16 -131 -5 -247
-4 -278 1 -19 4 -44 4 -54 1z"/>
<path d="M8195 2310 c-115 -32 -185 -74 -185 -110 0 -9 15 -21 35 -29 20 -7
65 -32 102 -57 92 -61 118 -60 63 3 -16 18 -30 38 -30 44 0 13 86 49 119 49
70 0 246 -85 262 -127 5 -13 9 -50 8 -81 -1 -98 -50 -158 -141 -177 -16 -3
-28 -9 -28 -13 0 -4 25 -27 54 -52 30 -25 71 -70 91 -102 23 -34 43 -54 51
-51 49 19 126 202 120 288 -7 107 -64 236 -135 304 -52 49 -135 91 -221 112
-87 22 -86 22 -165 -1z m385 -490 c0 -11 -4 -20 -10 -20 -5 0 -10 9 -10 20 0
11 5 20 10 20 6 0 10 -9 10 -20z"/>
<path d="M3226 2209 c-109 -40 -191 -117 -243 -229 -43 -93 -55 -135 -72 -270
-12 -89 -16 -706 -5 -735 17 -44 94 -114 127 -115 7 0 21 -7 31 -15 29 -22 53
-18 126 18 43 21 75 46 97 75 l33 44 0 246 c1 170 5 272 15 327 8 44 15 94 15
111 0 43 54 142 98 181 31 28 45 33 88 33 92 0 173 -50 311 -192 50 -52 98
-98 107 -101 25 -10 27 8 7 56 -16 37 -18 53 -10 82 6 20 8 39 6 41 -3 3 1 26
9 51 15 50 17 46 -46 117 -139 158 -225 222 -363 270 -64 22 -91 26 -179 24
-71 -1 -118 -7 -152 -19z m332 -109 c35 -13 67 -31 73 -42 5 -10 16 -18 23
-18 7 0 23 -12 37 -26 13 -14 38 -33 54 -41 34 -18 45 -31 45 -55 0 -19 -29
-25 -46 -10 -17 16 -119 51 -166 58 -41 5 -101 -5 -134 -25 -42 -24 -104 -77
-104 -89 0 -7 -14 -31 -32 -52 -17 -23 -34 -58 -39 -82 -4 -24 -12 -70 -19
-103 -6 -33 -13 -176 -15 -318 -4 -291 -10 -317 -75 -349 -44 -21 -62 -22
-106 -3 -26 11 -40 26 -55 61 -20 44 -21 59 -15 318 6 277 13 425 21 461 2 11
25 42 51 69 35 35 44 50 34 56 -10 6 -9 17 8 52 27 58 96 122 157 147 69 28
213 24 303 -9z"/>
<path d="M7072 2195 c11 -11 228 -16 228 -5 0 6 -42 10 -117 10 -64 0 -114 -2
-111 -5z"/>
<path d="M7336 2192 c-3 -6 40 -21 102 -37 164 -40 193 -49 252 -77 30 -14 67
-30 83 -36 19 -8 27 -19 27 -36 0 -18 7 -25 28 -30 15 -3 37 -8 50 -12 35 -10
26 17 -16 49 -120 91 -140 102 -237 131 -22 7 -47 15 -55 19 -8 3 -53 11 -100
17 -47 6 -95 14 -106 16 -12 3 -25 1 -28 -4z"/>
<path d="M3965 2183 c-71 -5 -78 -8 -65 -33 6 -12 22 -25 34 -30 21 -8 24 -17
28 -83 3 -43 11 -83 20 -96 l15 -22 7 23 c3 13 6 54 6 92 0 60 3 72 25 92 25
23 34 54 16 54 -5 0 -15 1 -23 3 -7 2 -35 2 -63 0z"/>
<path d="M5725 2169 c-8 -12 22 -49 40 -49 17 0 25 -23 25 -75 0 -82 32 -62
45 28 4 27 14 51 21 54 8 3 14 16 14 29 0 23 -3 24 -69 24 -39 0 -73 -5 -76
-11z"/>
<path d="M6125 2010 c-3 -5 -8 -35 -10 -65 -4 -52 -3 -55 22 -61 15 -4 34 -2
45 5 12 8 36 10 64 5 33 -5 49 -2 62 8 23 21 421 20 446 -1 9 -8 31 -11 53 -9
21 3 49 -1 63 -9 14 -7 32 -13 40 -13 44 -1 314 -126 363 -170 18 -15 56 -42
85 -60 39 -24 52 -38 52 -55 0 -13 -6 -28 -13 -32 -19 -12 -47 -60 -47 -81 0
-51 65 -122 113 -122 20 0 21 -4 6 -45 -10 -27 -9 -36 14 -72 24 -37 55 -58
102 -65 16 -3 21 -13 25 -53 7 -60 25 -90 62 -106 26 -11 43 -10 93 5 16 5 24
-2 39 -34 13 -30 29 -46 61 -61 40 -19 45 -19 74 -5 17 9 44 30 61 46 38 37
46 37 65 0 17 -33 43 -43 100 -38 50 4 77 39 77 101 l0 45 31 -11 c18 -6 52
-11 76 -11 59 -1 79 24 74 94 -3 50 -2 52 20 45 51 -16 73 -15 105 5 49 30 96
120 62 120 -15 0 -31 37 -24 55 5 11 14 14 33 10 41 -9 71 38 71 109 0 47 -4
57 -27 76 -15 11 -36 20 -47 18 -18 -3 -21 -9 -18 -50 2 -26 -2 -64 -8 -84
-12 -34 -14 -36 -49 -29 -29 5 -34 4 -23 -6 33 -34 2 -125 -54 -159 -22 -13
-60 -45 -86 -72 -26 -26 -56 -48 -67 -48 -25 0 -81 -32 -81 -46 0 -6 -12 -21
-26 -35 -22 -20 -38 -24 -105 -28 -103 -4 -147 14 -243 101 -11 10 -23 18 -27
18 -5 0 -15 15 -24 34 -22 45 -88 65 -71 21 3 -8 14 -18 23 -22 23 -8 63 -44
63 -56 0 -5 8 -16 18 -23 26 -20 0 -17 -54 7 -48 22 -194 160 -194 185 0 6 -9
19 -20 29 -11 10 -20 22 -20 27 0 5 -16 30 -35 55 -20 26 -38 57 -42 71 -6 26
25 172 37 172 4 0 15 11 24 25 22 34 7 32 -34 -5 -42 -37 -64 -38 -79 -2 -20
47 -85 105 -201 178 -30 19 -61 34 -69 34 -8 0 -22 6 -30 13 -16 13 -29 18
-176 62 -134 39 -202 48 -400 48 -163 1 -201 -2 -265 -20 -41 -12 -83 -24 -92
-28 -25 -10 -22 6 7 34 37 35 34 53 -5 29 -16 -10 -24 -10 -40 -1 -12 8 -21 9
-25 3z"/>
<path d="M5435 1944 c-20 -20 -20 -21 13 -38 19 -10 35 -31 46 -61 20 -50 15
-98 -8 -89 -8 3 -66 -29 -130 -70 -63 -42 -121 -76 -130 -76 -25 0 -29 -38 -7
-66 26 -33 26 -32 -3 -68 l-24 -29 -16 25 c-15 23 -15 28 -1 62 20 47 4 55
-51 27 -79 -40 -150 -69 -181 -76 -41 -8 -49 -20 -30 -48 13 -20 13 -26 0 -51
-21 -40 -45 -18 -41 38 2 32 0 40 -12 37 -8 -1 -40 -7 -70 -12 -123 -21 -175
-27 -182 -21 -4 4 -4 32 0 62 6 47 11 57 35 68 20 10 27 20 25 35 -3 19 -10
22 -57 25 -100 6 -127 -16 -76 -60 16 -14 25 -32 25 -51 0 -16 12 -52 26 -80
15 -31 23 -60 19 -74 -8 -32 -33 -18 -37 20 l-3 32 -113 0 c-64 0 -117 -4
-122 -10 -4 -5 -12 -37 -18 -70 -6 -33 -14 -70 -18 -82 -5 -20 -3 -23 19 -23
14 0 27 -4 29 -9 7 -20 202 -141 228 -141 6 0 10 28 10 69 0 66 -1 69 -26 75
-56 15 -168 106 -150 123 3 4 48 -1 99 -10 82 -14 201 -13 293 4 5 1 26 1 46
0 l37 -1 -6 -67 c-4 -52 -1 -73 10 -88 15 -19 16 -18 22 18 4 22 5 63 1 92 -6
56 0 65 45 65 20 0 106 24 144 40 30 13 83 22 93 16 6 -3 3 -29 -5 -58 -15
-55 -5 -117 17 -103 21 13 32 87 19 127 -11 33 -10 40 6 58 10 11 24 20 30 20
7 0 41 15 76 34 169 90 171 91 143 149 -16 34 -16 36 6 71 18 30 25 35 37 25
30 -25 35 -48 17 -84 -9 -20 -15 -38 -12 -40 2 -2 20 4 39 15 18 10 42 22 52
26 13 5 17 18 17 53 0 40 4 49 34 74 19 15 37 27 40 27 13 0 3 -47 -15 -75
-24 -38 -39 -73 -39 -89 0 -15 -58 -95 -106 -146 -18 -20 -34 -48 -36 -65 -2
-23 -7 -29 -21 -27 -12 2 -44 -22 -91 -70 -43 -43 -96 -85 -129 -102 l-57 -28
0 -58 c0 -32 -3 -65 -6 -74 -9 -23 22 -31 41 -12 9 9 21 16 27 16 15 0 106 62
166 114 30 25 58 46 64 46 7 0 8 -17 3 -47 -9 -59 -19 -80 -45 -88 -13 -4 -20
-15 -20 -31 0 -23 3 -24 65 -24 l65 0 0 29 c0 16 -6 31 -14 34 -8 3 -16 28
-20 59 -4 30 -16 67 -26 83 -22 33 -28 125 -9 125 8 0 10 -15 5 -49 -4 -27 -3
-52 2 -55 16 -10 108 109 155 199 34 65 78 157 87 181 5 13 14 24 19 24 19 0
23 67 8 118 -8 27 -11 56 -7 63 4 8 10 29 13 47 11 55 -14 50 -123 -23 -59
-40 -106 -65 -115 -61 -24 9 -19 72 6 90 12 8 19 22 17 32 -4 25 -110 31 -133
8z"/>
<path d="M8235 1900 c3 -5 24 -10 46 -10 21 0 39 5 39 10 0 6 -21 10 -46 10
-27 0 -43 -4 -39 -10z"/>
<path d="M7845 1891 c-8 -14 6 -19 42 -14 18 3 30 9 27 14 -7 12 -61 12 -69 0z"/>
<path d="M7696 1871 c-13 -15 -14 -20 -4 -24 18 -6 48 11 48 28 0 21 -24 19
-44 -4z"/>
<path d="M7935 1870 c3 -5 22 -12 43 -16 47 -8 102 -59 102 -93 0 -15 -10 -41
-23 -60 -12 -19 -27 -42 -32 -52 -20 -33 -38 -49 -53 -49 -8 0 -38 -18 -66
-41 -28 -22 -80 -57 -116 -78 -88 -52 -102 -74 -102 -153 0 -37 6 -75 13 -89
13 -22 14 -17 17 61 2 73 6 88 25 105 38 35 82 49 118 36 39 -13 49 -8 49 29
0 41 59 85 114 85 40 0 41 1 47 39 6 38 18 52 81 98 18 13 21 19 11 29 -19 19
-16 57 8 91 12 16 18 33 13 38 -5 4 -55 13 -112 19 -126 13 -145 14 -137 1z"/>
<path d="M7650 1827 c0 -7 -13 -26 -30 -42 -36 -35 -39 -52 -5 -29 14 9 25 22
25 29 0 7 7 15 15 19 17 6 21 36 5 36 -5 0 -10 -6 -10 -13z"/>
<path d="M3996 1773 c4 -21 10 -48 15 -60 7 -20 -2 -110 -17 -160 -5 -18 -1
-25 19 -32 25 -10 47 -38 47 -61 0 -15 -70 -2 -91 16 -8 8 -20 14 -26 14 -8 0
-104 48 -220 110 -21 11 -42 20 -47 20 -5 0 -28 16 -52 35 -46 38 -74 45 -74
19 0 -34 93 -100 240 -171 58 -29 117 -55 132 -58 43 -11 50 -26 37 -79 -6
-26 -9 -64 -6 -85 6 -44 0 -56 -30 -65 -23 -7 -38 -35 -26 -47 13 -12 141 -15
153 -3 14 14 3 42 -21 55 -15 8 -19 21 -19 64 0 29 -4 64 -9 78 -14 36 1 51
43 43 62 -12 120 -42 153 -79 28 -32 62 -57 77 -57 14 0 4 56 -15 87 l-21 34
21 23 c28 29 27 34 -13 76 -35 36 -197 271 -209 303 -3 9 -16 17 -27 17 -19 0
-20 -4 -14 -37z"/>
<path d="M4217 1723 c-15 -15 -6 -44 17 -53 19 -7 25 -19 30 -52 21 -139 46
-157 46 -33 0 67 1 71 30 87 18 10 30 25 30 38 0 18 -6 20 -73 20 -41 0 -77
-3 -80 -7z"/>
<path d="M5127 1723 c-32 -31 44 -80 93 -60 37 16 53 34 47 51 -5 12 -21 16
-70 16 -35 0 -67 -3 -70 -7z"/>
<path d="M5805 1639 c-6 -72 -10 -82 -31 -91 -13 -6 -24 -19 -24 -29 0 -22 31
-32 86 -27 31 2 40 7 42 25 2 14 -4 26 -17 33 -17 8 -21 20 -21 59 0 58 -10
111 -20 111 -4 0 -11 -36 -15 -81z"/>
<path d="M8255 1690 c-4 -6 -5 -12 -4 -14 34 -22 61 -36 71 -36 15 0 42 39 34
47 -12 12 -94 15 -101 3z"/>
<path d="M4833 1614 c-22 -9 -15 -28 26 -72 37 -39 40 -41 43 -20 2 15 15 28
36 37 24 11 32 21 30 35 -3 18 -11 21 -63 23 -33 1 -66 -1 -72 -3z"/>
<path d="M8190 1512 c-58 -15 -76 -43 -41 -62 26 -14 61 -13 61 2 0 6 9 22 21
34 l20 21 -23 5 c-13 2 -30 3 -38 0z"/>
<path d="M8030 1371 c-20 -4 -41 -11 -48 -15 -18 -11 -14 -34 7 -46 27 -14 41
-13 41 3 0 8 11 19 25 25 22 10 37 44 18 41 -5 -1 -24 -4 -43 -8z"/>
<path d="M7841 1250 c-17 -15 -19 -20 -8 -20 9 0 19 5 22 10 3 6 19 10 36 10
16 0 29 5 29 10 0 17 -54 10 -79 -10z"/>
<path d="M4271 1181 c-6 -11 -11 -31 -11 -46 0 -20 -7 -28 -30 -36 -16 -6 -30
-17 -30 -24 0 -26 28 -36 92 -33 55 3 63 6 66 24 2 14 -5 24 -22 32 -17 8 -26
22 -31 51 -8 48 -20 59 -34 32z"/>
<path d="M4610 1116 l0 -64 67 -21 c37 -12 98 -24 136 -28 l68 -6 -3 64 -3 64
-64 7 c-35 4 -92 16 -127 28 -35 11 -66 20 -69 20 -3 0 -5 -29 -5 -64z"/>
<path d="M5085 1149 c-38 -11 -92 -21 -120 -22 l-50 -3 -3 -62 -3 -62 62 0
c75 0 190 19 205 34 13 13 4 128 -11 132 -5 1 -41 -7 -80 -17z"/>
<path d="M4574 1006 c-3 -8 -19 -20 -35 -26 -31 -13 -36 -29 -17 -48 18 -18
123 -15 138 3 18 22 5 45 -26 45 -17 0 -28 6 -31 20 -6 23 -21 26 -29 6z"/>
<path d="M5186 968 c-9 -21 -16 -50 -16 -65 0 -19 -7 -31 -22 -38 -55 -25 -21
-63 57 -64 49 0 57 3 64 22 11 28 5 44 -20 50 -15 4 -19 14 -19 49 0 24 -6 53
-14 64 -14 18 -15 17 -30 -18z"/>
<path d="M4875 936 c-9 -20 -13 -41 -10 -45 2 -5 -6 -16 -20 -25 -50 -33 -20
-66 58 -66 48 0 71 17 65 47 -2 9 -14 20 -28 23 -20 5 -26 14 -32 49 -10 58
-15 61 -33 17z"/>
<path d="M396 749 c-16 -4 -42 -5 -57 -2 -30 6 -37 -5 -17 -25 18 -18 138 -12
138 7 0 16 -37 27 -64 20z"/>
<path d="M530 720 c-6 -11 -17 -20 -25 -20 -8 0 -15 -4 -15 -10 0 -5 -17 -12
-37 -16 -31 -6 -34 -8 -18 -14 40 -14 125 31 125 67 0 20 -18 16 -30 -7z"/>
<path d="M712 588 c-14 -14 -17 -365 -3 -387 5 -8 16 -11 25 -8 14 6 16 31 16
195 0 145 -3 192 -13 201 -10 8 -17 7 -25 -1z"/>
<path d="M1163 588 c-18 -24 -81 -162 -92 -205 -6 -23 -16 -45 -21 -48 -6 -3
-10 -15 -10 -25 0 -43 -21 -26 -53 42 -19 40 -40 89 -47 108 -33 94 -55 130
-77 130 -38 0 -28 -38 61 -222 31 -64 56 -123 56 -130 0 -19 21 -38 42 -38 13
0 33 31 72 113 29 61 59 130 66 152 7 22 19 47 27 57 16 18 14 69 -3 75 -6 2
-16 -2 -21 -9z"/>
<path d="M1995 584 c-77 -40 -119 -107 -119 -189 -1 -52 4 -67 33 -111 47 -71
80 -89 166 -89 79 0 138 27 149 68 12 45 7 144 -9 157 -29 24 -45 -5 -45 -79
0 -63 -2 -68 -29 -84 -87 -51 -221 32 -221 139 0 50 42 110 95 136 41 20 49
21 88 9 23 -7 57 -15 75 -18 27 -4 32 -2 32 15 0 50 -147 82 -215 46z"/>
<path d="M2610 593 c-8 -3 -17 -9 -20 -12 -3 -4 -17 -14 -33 -24 -15 -10 -38
-35 -52 -57 -20 -32 -25 -52 -25 -109 0 -83 14 -112 78 -161 43 -33 50 -35
125 -35 71 0 81 2 98 24 10 13 19 27 19 32 0 19 -34 22 -62 6 -57 -33 -122
-17 -175 41 -19 21 -23 37 -23 90 0 77 19 116 72 143 45 23 75 24 117 3 51
-25 79 -2 48 40 -10 14 -30 19 -83 22 -38 2 -76 1 -84 -3z"/>
<path d="M3000 593 c-34 -13 -102 -77 -116 -111 -32 -74 -17 -177 35 -235 31
-36 101 -60 157 -54 72 7 124 43 157 107 28 53 37 133 17 145 -5 3 -10 15 -10
26 0 30 -90 114 -129 122 -39 8 -89 8 -111 0z m111 -57 c74 -31 106 -100 88
-186 -8 -39 -17 -50 -59 -78 -94 -62 -177 -30 -215 81 -15 45 -15 52 -1 82 9
18 16 36 16 39 0 12 35 45 65 60 37 20 63 20 106 2z"/>
<path d="M3854 594 c-21 -5 -22 -11 -26 -192 -5 -191 -1 -220 31 -202 12 7 16
25 16 82 l0 73 88 6 c72 5 92 10 111 28 59 55 56 135 -6 181 -27 20 -46 24
-113 26 -44 1 -90 0 -101 -2z m176 -62 c48 -23 54 -70 14 -101 -24 -19 -38
-21 -98 -19 l-71 3 -3 59 c-2 41 1 62 10 67 23 15 112 10 148 -9z"/>
<path d="M4460 580 c-6 -11 -9 -74 -8 -149 l3 -130 -34 -30 c-48 -43 -97 -43
-140 1 l-31 32 0 144 0 143 -27 -3 -28 -3 -3 -134 c-3 -157 5 -184 71 -232 38
-28 47 -31 101 -26 46 4 64 11 88 34 17 15 34 39 39 52 11 28 22 267 14 292
-9 26 -33 31 -45 9z"/>
<path d="M4598 592 c-10 -2 -18 -10 -18 -17 0 -22 39 -37 77 -30 59 11 61 3
55 -174 -5 -152 -4 -159 16 -170 38 -20 44 5 37 163 -4 79 -4 154 0 165 5 17
14 20 57 18 38 -1 53 2 61 15 6 9 8 20 4 25 -8 7 -256 12 -289 5z"/>
<path d="M5421 591 c-10 -7 -12 -41 -9 -150 2 -89 -1 -140 -7 -138 -5 2 -57
66 -116 143 -145 191 -143 192 -147 -53 l-2 -193 26 0 27 0 -5 140 c-3 77 -3
142 1 144 8 5 42 -38 177 -223 29 -39 48 -56 64 -56 22 0 22 1 25 187 4 190
-1 219 -34 199z"/>
<path d="M5674 584 c-17 -8 -47 -32 -67 -52 -30 -31 -37 -47 -43 -94 -14 -118
16 -182 105 -228 75 -40 203 -13 230 47 14 29 14 143 1 163 -7 12 -13 13 -27
4 -15 -9 -17 -23 -15 -70 1 -33 -1 -64 -5 -69 -31 -41 -111 -57 -156 -32 -36
20 -67 49 -67 64 0 7 -4 13 -10 13 -6 0 -10 26 -10 58 1 74 35 128 97 151 39
14 47 14 90 -2 63 -22 83 -22 83 2 0 51 -135 80 -206 45z"/>
<path d="M6198 586 c-23 -11 -23 -15 -26 -199 l-2 -187 30 0 30 0 0 74 c0 47
4 78 12 82 6 4 35 6 64 5 28 -1 67 4 86 12 68 29 100 116 60 162 -48 54 -60
59 -147 61 -46 1 -95 -4 -107 -10z m165 -47 c46 -12 64 -48 46 -90 -9 -22 -20
-29 -53 -34 -22 -4 -59 -5 -81 -3 l-40 3 -3 54 c-2 29 -1 60 2 67 6 17 74 18
129 3z"/>
<path d="M6588 592 l-28 -3 -2 -145 c-4 -268 -7 -239 27 -239 l30 0 -3 71 c-4
84 4 94 69 87 34 -4 50 -11 58 -27 44 -85 96 -149 114 -143 26 8 16 45 -27
102 -25 33 -46 64 -46 68 0 5 13 19 29 33 53 44 50 138 -6 179 -22 15 -44 19
-108 20 -44 0 -92 -1 -107 -3z m189 -64 c29 -27 30 -71 3 -98 -18 -18 -31 -20
-93 -18 l-72 3 -3 53 c-4 71 6 82 81 82 49 0 65 -4 84 -22z"/>
<path d="M7063 590 c-13 -5 -42 -29 -67 -53 -38 -38 -44 -51 -50 -101 -12 -93
-1 -132 54 -187 38 -38 57 -49 93 -54 110 -17 194 37 232 149 14 42 14 50 -2
99 -21 64 -57 108 -109 136 -41 22 -111 27 -151 11z m120 -55 c53 -22 90 -76
95 -139 4 -50 2 -56 -33 -95 -21 -22 -44 -41 -51 -41 -8 0 -14 -4 -14 -10 0
-13 -87 -13 -103 0 -45 38 -54 48 -70 72 -39 62 -9 161 63 210 31 21 67 22
113 3z"/>
<path d="M7723 592 c-23 -3 -23 -4 -23 -196 l0 -193 125 -7 c69 -4 130 -4 135
-1 20 12 11 45 -12 46 -13 0 -63 1 -113 2 l-90 2 0 65 0 65 77 0 c84 0 107 11
90 41 -9 16 -21 18 -91 15 l-81 -3 0 56 c0 37 4 57 13 58 6 1 52 2 101 2 73 1
90 4 100 19 9 14 8 20 -4 27 -14 9 -171 10 -227 2z"/>
<path d="M8160 593 c-8 -3 -19 -10 -25 -14 -5 -5 -25 -21 -44 -36 -42 -33 -61
-78 -61 -140 0 -101 33 -157 112 -193 82 -37 198 -17 198 34 0 21 -5 26 -24
26 -13 0 -29 -7 -36 -15 -33 -40 -158 4 -181 63 -18 44 -14 125 7 161 20 34
79 71 113 71 12 0 39 -7 61 -16 29 -12 45 -13 52 -6 17 17 -1 50 -34 61 -32
11 -113 14 -138 4z"/>
<path d="M8412 592 c-6 -2 -12 -10 -12 -17 0 -24 39 -37 86 -30 38 5 44 4 45
-12 0 -10 1 -90 2 -178 2 -153 3 -160 22 -160 19 0 20 7 22 160 1 88 2 168 2
178 1 15 8 16 54 11 43 -5 57 -3 71 11 31 32 4 40 -142 41 -75 0 -143 -1 -150
-4z"/>
<path d="M354 566 c-9 -38 0 -344 11 -355 6 -5 60 -12 120 -16 84 -5 114 -3
127 7 12 9 15 17 8 28 -7 11 -29 14 -104 12 l-95 -3 -7 27 c-4 15 -5 88 -2
163 3 75 3 142 1 149 -3 6 -15 12 -29 12 -17 0 -25 -7 -30 -24z"/>
<path d="M1295 580 c-3 -5 -7 -92 -8 -192 l-2 -183 28 -3 c17 -2 27 1 28 10 0
14 0 344 -1 366 0 14 -36 16 -45 2z"/>
<path d="M1458 403 c-3 -107 0 -193 5 -200 6 -9 15 -10 27 -3 17 9 18 21 13
150 -4 81 -2 140 3 140 10 0 36 -32 94 -111 117 -160 135 -180 160 -177 l24 3
1 190 0 190 -27 3 c-33 4 -31 15 -28 -155 1 -85 -2 -133 -8 -133 -6 0 -21 17
-33 38 -13 20 -43 62 -66 92 -24 30 -47 60 -51 65 -45 63 -77 95 -92 95 -16 0
-18 -15 -22 -187z"/>
<path d="M3348 408 c-2 -101 -1 -189 1 -196 2 -8 15 -12 30 -10 l26 3 -4 138
c-4 163 3 170 67 72 28 -41 50 -65 62 -65 11 0 34 23 60 63 23 34 47 62 53 62
9 0 11 -38 8 -137 l-3 -138 31 0 31 0 -2 193 -3 192 -24 0 c-13 0 -29 -9 -35
-20 -6 -10 -23 -33 -38 -49 -15 -17 -35 -45 -45 -63 -21 -39 -45 -42 -61 -9
-6 14 -26 42 -45 63 -19 21 -39 48 -46 61 -7 13 -21 22 -36 22 l-24 0 -3 -182z"/>
<path d="M4968 413 c-2 -98 -1 -186 1 -196 3 -13 11 -17 30 -15 l26 3 0 190 0
190 -27 3 -27 3 -3 -178z"/>
<path d="M7527 583 c-4 -3 -7 -75 -7 -158 0 -134 -2 -154 -18 -168 -23 -21
-70 -21 -96 -2 -24 18 -36 11 -36 -21 0 -66 163 -53 200 16 6 10 10 91 10 179
l0 161 -23 0 c-13 0 -27 -3 -30 -7z"/>
</g>
</svg>
